<svg width="359" height="80" viewBox="0 0 359 80" fill="none" xmlns="http://www.w3.org/2000/svg">
<g clip-path="url(#clip0)">
<path d="M115.626 43.4625C112.841 43.4625 110.132 44.0826 108.428 44.9348V27.7486C105.719 28.7533 102.854 30.1494 100.456 32.0824C99.2162 33.0871 98.8317 34.0952 98.8317 35.5675V77.9872C101.385 79.0715 106.571 80 111.525 80C124.065 80 131.264 72.337 131.264 61.2688C131.261 50.2767 126.154 43.4625 115.626 43.4625ZM112.065 72.1812C111.061 72.1812 109.512 72.1812 108.428 71.7932V52.5181C109.744 51.8217 111.601 51.4337 114.002 51.4337C118.8 51.4337 121.356 54.7629 121.356 61.0332C121.353 67.6153 118.335 72.1812 112.065 72.1812ZM155.722 43.7743C151.156 43.7743 148.523 45.5549 146.046 48.7282C145.814 47.1034 145.506 45.787 144.962 44.1623C144.033 43.854 142.409 43.7743 141.012 43.7743C139.696 43.7743 137.995 43.9302 137.143 44.1623V79.2274C138.303 79.5358 140.24 79.6154 141.941 79.6154C143.566 79.6154 145.734 79.4595 146.739 79.2274V62.121C146.739 55.3102 150.3 51.6693 155.098 51.6693C155.95 51.6693 157.419 51.6693 158.271 51.8252C158.812 49.5804 158.891 46.3309 158.427 44.0861C157.89 43.9267 156.498 43.7743 155.722 43.7743ZM34.504 60.9397V78.8013C34.504 79.2482 34.8677 79.612 35.3146 79.612H40.2824V56.6786L35.3215 59.5332C34.8192 59.8207 34.504 60.2745 34.504 60.9397ZM39.5375 17.0372C34.6737 17.0372 29.3596 17.4841 24.1078 18.3778C29.4254 11.5533 37.8505 7.1502 47.2524 7.1502C54.1879 7.1502 61.1268 9.76571 65.7931 13.6561C66.6349 14.3593 67.2828 14.4217 67.934 13.7842C68.5818 13.1468 68.516 12.5094 67.8059 11.678C61.7122 4.59705 52.7641 -0.187087 42.1981 0.00691079C28.3896 0.259801 16.6527 9.00011 12.1803 21.1181C8.09598 22.3929 4.33726 23.9241 1.0289 25.774C0.121267 26.2833 -0.204373 26.9207 0.121267 27.6863C0.446906 28.3895 1.09472 28.6424 2.00236 28.3895C4.85344 27.5616 7.7738 26.8583 10.8189 26.2209C10.4932 27.8145 10.2992 29.4738 10.2992 31.1956C10.0394 42.3574 16.0049 52.9476 25.2094 58.7502C26.117 59.3253 26.8965 59.3253 27.4127 58.6221C27.9323 57.9188 27.8665 57.2814 27.087 56.5816C21.2567 51.3541 18.0141 43.5699 18.0141 35.8515C18.0141 31.9612 18.7936 28.1955 20.2832 24.8179C23.3318 24.5615 26.6367 24.371 30.2672 24.371C53.8657 24.371 73.7678 32.1517 73.7678 42.3574C73.7678 47.5226 67.2204 52.6913 59.4397 56.1347C57.5586 56.9627 57.3646 57.5378 57.6244 58.3657C57.8842 59.1313 58.726 59.3877 59.6995 59.069C73.314 54.6035 83.6202 47.2697 83.6202 38.4012C83.6236 26.3491 64.1753 17.0372 39.5375 17.0372ZM49.0642 51.6243L42.4995 55.4038V79.6016L49.5527 79.612C50.2455 79.612 50.8102 79.0508 50.8102 78.3579V52.5284C50.8068 51.5377 49.8506 51.1774 49.0642 51.6243ZM341.808 43.3101C331.048 43.3101 325.009 50.6647 325.009 61.733C325.009 72.9571 331.356 80 341.808 80C352.644 80 358.682 72.8013 358.682 61.733C358.682 50.585 352.647 43.3101 341.808 43.3101ZM341.808 72.2608C336.466 72.2608 334.841 67.927 334.841 61.733C334.841 55.6948 336.466 51.0492 341.808 51.0492C347.302 51.0492 348.85 55.5389 348.85 61.733C348.854 68.2354 347.073 72.2608 341.808 72.2608ZM248.148 43.3101C237.776 43.3101 231.429 50.2767 231.429 61.8889C231.429 73.501 238.164 80.0034 249.696 80.0034C253.646 80.0034 257.903 79.3071 260.612 77.9907C261.153 75.7459 261.153 72.8047 260.612 70.5599C257.051 71.5645 254.034 72.1846 250.705 72.1846C245.363 72.1846 241.649 70.1719 240.873 64.5217H262.701C263.01 63.6695 263.089 60.8045 263.089 59.644C263.086 49.1924 257.204 43.3101 248.148 43.3101ZM240.87 57.4754C241.566 53.2178 244.119 50.6647 247.992 50.6647C252.326 50.6647 254.03 53.6058 254.186 57.4754H240.87ZM314.949 72.1049C310.151 72.1049 306.978 68.3116 306.978 61.6568C306.978 55.3102 309.531 51.2051 315.029 51.2051C317.35 51.2051 318.978 51.5931 321.143 52.4453C321.763 50.2767 322.924 47.7997 324.549 45.7108C321.531 44.1623 318.587 43.3101 313.789 43.3101C303.185 43.3101 297.07 50.8171 297.07 61.6568C297.07 72.8809 303.34 80.0034 314.177 80.0034C318.126 80.0034 321.763 79.3071 324.704 77.6824C323.388 75.978 321.919 73.6569 321.067 70.9479C318.355 72.0287 317.194 72.1049 314.949 72.1049ZM173.448 43.3101C169.655 43.2339 166.326 43.6981 163.076 44.4706C162.456 46.6392 162.536 49.8125 163.076 52.0573C167.102 51.1289 169.347 51.0527 171.9 51.0527C176.854 51.0527 179.254 53.0654 179.254 57.1671V57.5551C177.782 57.3992 176.005 57.2468 174.765 57.2468C166.558 57.2468 159.515 60.1879 159.515 68.0829C159.515 76.9861 165.862 80.0034 175.073 80.0034C179.407 80.0034 184.129 79.2309 188.466 77.9145V57.8669C188.466 48.2639 183.28 43.5422 173.448 43.3101ZM179.254 72.1049C178.714 72.2608 176.313 72.4929 175.153 72.4929C170.739 72.4929 168.342 71.1765 168.342 68.0795C168.342 64.9824 170.743 63.7457 175.153 63.7457C176.625 63.7457 178.326 63.9016 179.254 63.9778V72.1049ZM216.408 35.5675V44.0064C214.704 43.5422 212.927 43.466 211.378 43.466C200.774 43.466 193.576 50.5885 193.576 61.9651C193.576 73.5772 200.618 80 211.61 80C216.641 80 221.594 79.3037 226.008 77.8313V27.7486C223.299 28.7533 220.434 30.1494 218.037 32.0824C216.796 33.0905 216.408 34.0986 216.408 35.5675ZM216.408 71.6407C214.784 72.1049 213.623 72.1812 212.307 72.1812C205.96 72.1812 203.483 67.9998 203.483 61.9651C203.483 55.2306 205.96 51.1289 212.231 51.1289C214.087 51.1289 215.248 51.361 216.412 51.6693V71.6407H216.408ZM285.07 58.4038L281.2 56.7791C278.956 55.8507 277.639 55.0747 277.639 53.6058C277.639 51.361 279.652 50.8968 282.285 50.8968C284.918 50.8968 287.627 51.2051 291.34 52.3691C291.804 49.8159 291.804 47.4152 291.34 45.1704C289.019 43.9302 284.682 43.3135 280.889 43.3135C273.458 43.3135 267.808 47.339 267.808 53.3772C267.808 58.7953 270.129 61.5043 276.631 64.1372L279.648 65.3739C282.513 66.5344 283.366 67.2307 283.366 69.091C283.366 71.8763 280.58 72.3405 278.256 72.3405C274.386 72.3405 271.445 71.568 267.728 70.2516C267.108 72.4964 267.108 75.4376 267.728 77.7586C270.901 79.463 275.235 80.0034 279.804 80.0034C287.159 80.0034 293.041 76.1339 293.041 69.1673C293.041 63.4339 290.564 60.7249 285.07 58.4038Z" fill="#ADADAD"/>
</g>
<defs>
<clipPath id="clip0">
<rect width="358.682" height="80" fill="white"/>
</clipPath>
</defs>
</svg>
