<svg width="283" height="112" viewBox="0 0 283 112" fill="none" xmlns="http://www.w3.org/2000/svg">
<path fill-rule="evenodd" clip-rule="evenodd" d="M262.26 47.5249H255.453L254.889 50.0201H262.26C269.003 50.0201 271.279 51.8546 271.279 57.2901V59.9214C269.607 58.2102 266.65 57.3426 262.472 57.3426C255.806 57.3426 252.566 60.2312 252.566 66.1714V66.6038C252.566 72.1734 255.757 74.9982 262.049 74.9982H263.743C270.408 74.9982 273.79 72.1734 273.79 66.6038V57.2901C273.79 50.3539 270.449 47.5249 262.26 47.5249ZM271.279 66.964C271.279 70.9499 269.147 72.503 263.673 72.503H262.614C257.331 72.503 255.077 70.7379 255.077 66.6038V66.1714C255.077 61.6808 257.225 59.7662 262.26 59.7662H262.684C268.709 59.7662 271.279 61.6163 271.279 65.9545V66.964V66.964ZM87.4677 52.4203L88.8068 45.7548H77.2807V36.6495L69.1898 37.8985V65.0954C69.1898 74.4977 72.7979 77.2956 82.6354 77.2956H86.9425L88.2822 70.689H83.2174C78.736 70.689 77.28 69.5598 77.28 64.5595V52.4203H87.4677V52.4203ZM31.8775 33.4944V62.7157C31.8775 73.5471 36.7665 78.0697 47.4192 78.0697C58.4789 78.0697 63.3686 73.6662 63.3686 62.7746V59.9781C63.3686 49.7422 58.8276 44.7426 48.9327 44.7426C45.7889 44.7426 42.3544 45.3969 40.0258 47.2413V32.1851L31.8775 33.4937V33.4944ZM47.7099 51.2882C53.2978 51.2882 55.2777 53.5502 55.2777 60.2744V62.7746C55.2777 69.3202 53.2978 71.5829 47.5936 71.5829C41.8894 71.5829 39.9089 69.3202 39.9089 62.715V59.3231C39.9089 53.312 41.8887 51.2882 47.7092 51.2882H47.7099ZM107.026 44.7426C96.3732 44.7426 91.4834 49.3247 91.4834 59.7988V61.4058C91.4834 71.344 95.7331 76.1643 105.744 76.1643C108.946 76.1643 112.148 75.5702 114.418 73.7244V74.9159C114.418 80.5103 112.032 82.3533 106.443 82.3533H103.097C101.185 82.3881 100.316 82.7354 99.1632 84.667L99.1569 84.6642C89.5589 100.194 72.8957 109.681 54.7361 109.681C25.7614 109.681 2.18967 85.5829 2.18967 55.9596C2.18967 26.337 25.7614 2.23858 54.7361 2.23858C75.0882 2.23858 93.6029 14.2885 102.265 33.0407H104.68C95.8514 12.9608 76.2805 0 54.7361 0C24.5549 0 0 25.1036 0 55.9596C0 86.8163 24.5549 111.92 54.7361 111.92C72.486 111.92 88.8663 103.219 99.0782 88.7806H106.909C117.212 88.7806 122.51 84.7939 122.51 74.6175V59.2636C122.51 49.146 117.445 44.7426 107.026 44.7426V44.7426ZM114.477 62.4173C114.477 68.0116 112.556 69.737 107.027 69.737C100.797 69.737 99.5751 67.5353 99.5751 61.0492V60.0377C99.5751 53.609 100.681 51.2882 107.026 51.2882C113.254 51.2882 114.477 53.5502 114.477 60.0965V62.4173V62.4173ZM278.975 74.9982H281.487V37.2017H278.976V74.9982H278.975ZM222.392 50.0208L222.956 47.5249H211.723V40.3895L209.141 40.8609V65.3045C209.141 72.2655 211.692 74.8543 218.552 74.8543H222.262L222.731 72.3591H218.552C213.382 72.3591 211.723 70.6805 211.723 65.4477V50.0215H222.393L222.392 50.0208ZM245.646 64.1498C245.646 70.5827 243.678 72.6469 237.546 72.6469C231.595 72.6469 229.587 70.5033 229.587 64.1498V47.5249H227.005V64.1498C227.005 72.0607 229.961 75.1421 237.546 75.1421C245.084 75.1421 248.158 71.9586 248.158 64.1498V47.5249H245.646V64.1498ZM188.844 62.345V60.0341C188.844 52.6407 191.314 50.0208 198.286 50.0208H204.177L204.738 47.5249H198.287C189.972 47.5249 186.262 51.3825 186.262 60.0334V62.345C186.262 70.9959 189.971 74.8543 198.287 74.8543H204.245L204.809 72.3591H198.287C191.491 72.3591 188.845 69.5513 188.845 62.345H188.844ZM170.254 47.5249H163.446L162.884 50.0201H170.254C176.944 50.0201 179.201 51.8546 179.201 57.2901V59.9214C177.531 58.2102 174.574 57.3426 170.395 57.3426C163.73 57.3426 160.49 60.2312 160.49 66.1714V66.6038C160.49 72.1734 163.703 74.9982 170.042 74.9982H171.736C178.357 74.9982 181.714 72.1734 181.714 66.6038V57.2901C181.714 50.3539 178.393 47.5249 170.254 47.5249ZM179.201 66.964C179.201 71.0023 177.159 72.503 171.666 72.503H170.607C165.277 72.503 163.001 70.7379 163.001 66.6038V66.1714C163.001 61.6808 165.149 59.7662 170.183 59.7662H170.607C176.631 59.7662 179.201 61.6163 179.201 65.9545V66.964V66.964ZM144.975 47.0917C137.013 47.0917 133.304 51.1131 133.304 59.7449V83.2281H135.816V71.1696C137.633 73.5847 141.021 74.9982 145.116 74.9982C153.042 74.9982 156.576 71.0952 156.576 62.345V59.6733C156.576 50.9721 152.998 47.091 144.975 47.091V47.0917ZM153.993 62.3443C153.993 69.7498 151.588 72.5023 145.116 72.5023C138.991 72.5023 135.886 69.4492 135.886 63.4267V59.7449C135.886 52.5287 138.519 49.5862 144.975 49.5862C151.464 49.5862 153.993 52.4139 153.993 59.6733V62.3443V62.3443Z" fill="#ADADAD"/>
</svg>
