<svg width="40" height="40" viewBox="0 0 40 40" fill="none" xmlns="http://www.w3.org/2000/svg">
<path d="M29.339 0.000915527C36.141 0.000915527 39.981 3.85892 40.001 10.6609V29.3409C40.001 36.1409 36.141 40.0009 29.339 40.0009H10.661C3.85898 40.0009 0.000976562 36.1409 0.000976562 29.3409V10.6609C0.000976562 3.85892 3.85898 0.000915527 10.661 0.000915527H29.339ZM21.001 8.26092C20.439 7.92092 19.759 7.92092 19.221 8.26092C18.679 8.59892 18.381 9.22092 18.439 9.84092V30.2209C18.541 31.0809 19.259 31.7209 20.099 31.7209C20.961 31.7209 21.679 31.0809 21.759 30.2209V9.84092C21.839 9.22092 21.541 8.59892 21.001 8.26092ZM11.661 14.8209C11.121 14.4809 10.439 14.4809 9.90098 14.8209C9.35898 15.1609 9.06098 15.7789 9.12098 16.4009V30.2209C9.19898 31.0809 9.91898 31.7209 10.779 31.7209C11.641 31.7209 12.359 31.0809 12.439 30.2209V16.4009C12.501 15.7789 12.199 15.1609 11.661 14.8209ZM30.179 22.0809C29.641 21.7409 28.961 21.7409 28.401 22.0809C27.859 22.4209 27.561 23.0189 27.641 23.6609V30.2209C27.721 31.0809 28.439 31.7209 29.301 31.7209C30.141 31.7209 30.859 31.0809 30.961 30.2209V23.6609C31.019 23.0189 30.721 22.4209 30.179 22.0809Z" fill="#364254"/>
</svg>
