<svg width="522" height="80" viewBox="0 0 522 80" fill="none" xmlns="http://www.w3.org/2000/svg">
<g clip-path="url(#clip0)">
<path fill-rule="evenodd" clip-rule="evenodd" d="M6.22783 51.825V10.0118C6.22783 4.71423 6.0544 2.28617 1.92353 2.28617H0V0.0946045H20.5124C30.2562 0.0946045 35.7745 2.71187 35.6484 10.7844C35.5853 14.9783 30.9657 20.8908 24.3437 23.2558C30.5873 24.4541 37.0989 31.0445 37.0989 37.6508C37.0989 49.9015 26.5826 51.825 18.5889 51.825H6.22783V51.825ZM12.976 22.7828H17.9109C25.3528 22.7828 29.1841 15.7509 29.1841 12.093C29.1841 2.4123 21.3007 1.6555 12.9917 2.28617V22.7828H12.976ZM12.976 44.1466C12.976 47.1738 17.028 49.3812 19.8818 49.7596C27.024 50.7213 31.1707 44.73 31.1864 39.9842C31.218 30.9342 23.1927 24.8482 16.5708 25.1478C15.4513 25.1951 13.6539 25.1005 12.976 25.2266V44.1466ZM94.7261 21.1589C99.0461 16.0032 105.542 13.7328 109.452 13.7328C111.454 13.7328 113.189 14.2531 114.639 15.2464C116.09 16.2554 117.241 17.9109 118.108 20.2286C118.707 21.8526 119.07 24.0126 119.07 27.3394V43.1218C119.07 45.4395 119.259 47.0162 119.637 47.8518C119.921 48.514 120.41 49.0343 121.056 49.4127C121.719 49.7911 123.138 49.9803 124.888 49.9803V51.4624H106.646V49.9803H107.418C109.121 49.9803 110.65 49.728 111.328 49.192C112.006 48.6717 112.479 47.8991 112.747 46.89C112.858 46.4959 112.905 45.2188 112.905 43.1218V27.9227C112.905 24.5487 112.464 22.0891 111.596 20.5597C110.729 19.0304 108.948 18.2736 106.882 18.2736C103.713 18.2736 97.8636 20.0237 94.7103 23.5239V43.106C94.7103 45.5972 94.8522 47.1265 95.1518 47.7099C95.5302 48.4825 96.0505 49.0501 96.7127 49.4127C97.3749 49.7753 99.1565 49.9488 101.175 49.9488V51.4308H82.8853V49.9488H83.6894C85.5656 49.9488 86.8427 49.4758 87.5049 48.5298C88.1671 47.5838 88.4982 45.7706 88.4982 43.106V25.1636C88.4982 21.5057 86.0229 19.5191 82.0812 18.3682L94.7418 13.4174V21.1589H94.7261ZM157.115 22.7513C155.396 20.0552 152.101 16.1451 147.371 15.9243C139.472 15.5617 136.476 24.0915 136.445 30.272C136.382 41.9393 140.623 49.1604 150.792 49.4442C153.693 49.5231 157.603 48.6717 160.457 46.8585L160.552 50.1222C156.468 52.6291 152.763 52.9917 147.513 52.9917C136.571 52.9917 129.46 44.4777 129.46 34.3082C129.46 23.3504 136.855 13.4647 149.168 13.4647C152.921 13.4647 159.275 14.8049 161.734 17.8006L157.115 22.7513ZM184.076 13.2755C194.324 13.2755 202.633 22.1679 202.633 33.1257C202.633 44.0836 194.324 52.976 184.076 52.976C173.827 52.976 165.503 44.0836 165.503 33.1257C165.503 22.1679 173.812 13.2755 184.076 13.2755ZM184.076 15.6248C190.477 15.6248 195.664 23.4608 195.664 33.1415C195.664 42.8222 190.477 50.6583 184.076 50.6583C177.674 50.6583 172.487 42.8222 172.487 33.1415C172.471 23.4608 177.674 15.6248 184.076 15.6248ZM45.1557 25.9834C45.1242 17.501 54.1742 13.4174 59.7083 13.4174C62.9878 13.4174 65.6681 13.9693 67.7808 15.0729C69.3575 15.8928 69.8305 17.1384 70.5873 18.9042C71.0761 20.0394 71.281 22.4044 71.3126 25.9677L71.5175 44.935C71.5648 49.6019 77.1462 49.6965 78.581 49.1762L78.6598 50.9578C76.2791 52.5818 73.8352 53.3071 71.9905 53.039C68.1277 52.503 66.0307 48.9712 65.6523 45.7706C63.0351 49.0028 58.4312 53.0075 53.0863 53.0075C48.3879 53.0075 44.3043 49.8069 44.5093 43.3425C44.7773 34.4974 59.6295 31.9117 65.3212 29.8305V25.5105C65.3212 19.9448 64.659 16.35 58.4943 16.35C54.0008 16.35 51.9038 18.2578 52.2665 23.4608L45.1557 25.9834ZM65.337 40.4572V32.2901C61.6476 33.7406 54.4896 35.5853 52.0773 38.9752C51.1628 40.268 50.0434 43.7525 51.9984 46.5905C55.8297 52.2349 65.337 46.89 65.337 40.4572Z" fill="#ADADAD"/>
<path fill-rule="evenodd" clip-rule="evenodd" d="M264.517 25.9834C264.486 17.501 273.536 13.4174 279.07 13.4174C282.349 13.4174 285.029 13.9693 287.142 15.0729C288.719 15.8928 289.192 17.1384 289.949 18.9042C290.437 20.0394 290.642 22.4044 290.674 25.9677L290.879 44.935C290.926 49.6019 296.508 49.6965 297.942 49.1762L298.021 50.9578C295.64 52.5818 293.197 53.3071 291.352 53.039C287.489 52.503 285.392 48.9712 285.014 45.7706C282.396 49.0028 277.793 53.0075 272.448 53.0075C267.749 53.0075 263.666 49.8069 263.871 43.3425C264.139 34.4974 278.991 31.9117 284.683 29.8305V25.5104C284.683 19.9448 284.02 16.35 277.856 16.35C273.362 16.35 271.265 18.2578 271.628 23.4608L264.517 25.9834ZM284.698 40.4572V32.2901C281.009 33.7406 273.851 35.5853 271.439 38.9752C270.524 40.268 269.405 43.7525 271.36 46.5905C275.207 52.2349 284.698 46.89 284.698 40.4572ZM214.411 51.825V9.22349C214.411 2.01813 213.559 2.34923 208.325 2.34923V0.0945999H227.655C245.439 0.0945999 257.044 5.12416 257.044 25.6839C257.044 38.2341 249.081 51.8092 229.72 51.8092H214.411V51.825ZM221.127 44.257C222.136 48.8136 228.317 49.5388 230.508 49.5388C241.987 49.5388 249.917 41.6555 249.917 26.0465C249.917 18.9042 247.505 13.1967 243.626 9.09736C239.48 4.69846 235.743 1.92353 221.127 2.2231V44.257V44.257ZM303.082 60.8435C305.132 61.8053 308.396 61.8053 309.783 61.3638C315.901 59.4087 317.871 56.0504 320.284 50.8632L306.646 22.3098C305.053 18.983 304.06 16.8073 300.78 16.6338V14.4896H316.121V16.6181H315.27C311.912 16.6181 311.849 18.2578 313.946 22.8143L323.563 43.6579L333.528 21.8368C334.757 19.1407 335.23 16.555 330.769 16.555V14.4896H342.231V16.5708C340.402 16.5708 339.062 16.4762 336.523 21.8526L319.401 57.974C316.484 64.1387 310.256 69.7201 299.803 66.4722L303.082 60.8435ZM420.749 14.4896H436.169V16.6023H435.033C431.376 16.6023 432.085 19.0934 433.394 21.9156L443.831 44.3831L453.197 21.1431C454.316 18.3682 454.332 16.6496 449.46 16.6496V14.4896H462.152V16.6338C460.497 16.6338 458.967 16.5077 457.075 20.9539L443.484 52.976H441.119L426.488 21.758C424.832 18.2263 424.265 16.9019 420.749 16.6023V14.4896V14.4896ZM515.743 0V43.106C515.743 45.408 515.901 46.9373 516.232 47.6784C516.563 48.4194 517.083 49.0028 517.793 49.3812C518.486 49.7596 519.779 49.9645 521.687 49.9645V51.4466H503.618V49.9645C505.305 49.9645 506.929 49.7911 507.544 49.4442C508.159 49.0974 508.648 48.5298 508.995 47.7257C509.342 46.9373 509.515 45.3922 509.515 43.1218V11.1786C509.515 7.75719 505.211 5.56563 502.956 4.5408L515.743 0ZM399.495 13.2755C409.744 13.2755 418.053 22.1679 418.053 33.1257C418.053 44.0836 409.744 52.976 399.495 52.976C389.247 52.976 380.922 44.0836 380.922 33.1257C380.922 22.1679 389.247 13.2755 399.495 13.2755ZM399.495 15.6248C405.897 15.6248 411.084 23.4608 411.084 33.1415C411.084 42.8222 405.897 50.6583 399.495 50.6583C393.094 50.6583 387.907 42.8222 387.907 33.1415C387.907 23.4608 393.094 15.6248 399.495 15.6248ZM466.74 25.9834C466.709 17.501 475.759 13.4174 481.293 13.4174C484.572 13.4174 487.253 13.9693 489.365 15.0729C490.942 15.8928 491.415 17.1384 492.172 18.9042C492.661 20.0394 492.865 22.4044 492.897 25.9677L493.102 44.935C493.149 49.6019 498.731 49.6965 500.165 49.1762L500.244 50.9578C497.864 52.5818 495.42 53.3071 493.575 53.039C489.712 52.503 487.615 48.9712 487.237 45.7706C484.62 49.0028 480.016 53.0075 474.671 53.0075C469.972 53.0075 465.889 49.8069 466.094 43.3425C466.362 34.4974 481.214 31.9117 486.906 29.8305V25.5104C486.906 19.9448 486.243 16.35 480.079 16.35C475.585 16.35 473.488 18.2578 473.851 23.4608L466.74 25.9834ZM486.906 40.4572V32.2901C483.216 33.7406 476.058 35.5853 473.646 38.9752C472.731 40.268 471.612 43.7525 473.567 46.5905C477.414 52.2349 486.906 46.89 486.906 40.4572ZM372.44 22.7513C370.721 20.0552 367.426 16.1451 362.696 15.9243C354.797 15.5617 351.801 24.0914 351.77 30.272C351.707 41.9393 355.948 49.1604 366.117 49.4442C369.018 49.5231 372.929 48.6717 375.782 46.8585L375.877 50.1222C371.793 52.6291 368.088 52.9917 362.838 52.9917C351.896 52.9917 344.785 44.4777 344.785 34.3082C344.785 23.3504 352.18 13.4647 364.493 13.4647C368.246 13.4647 374.6 14.8049 377.059 17.8006L372.44 22.7513Z" fill="#ADADAD"/>
<path fill-rule="evenodd" clip-rule="evenodd" d="M214.411 63.3977H230.997V80H214.411V63.3977Z" fill="#ADADAD"/>
<path fill-rule="evenodd" clip-rule="evenodd" d="M230.997 63.3977H247.584V80H230.997V63.3977Z" fill="#ADADAD"/>
</g>
<defs>
<clipPath id="clip0">
<rect width="521.687" height="80" fill="white"/>
</clipPath>
</defs>
</svg>
