<svg width="40" height="40" viewBox="0 0 40 40" fill="none" xmlns="http://www.w3.org/2000/svg">
<circle cx="20" cy="20" r="20" fill="#CE596D"/>
<path d="M17.5197 13.667C17.9397 13.6798 18.3464 13.7531 18.7404 13.8871H18.7797C18.8064 13.8998 18.8264 13.9138 18.8397 13.9265C18.987 13.9738 19.1264 14.0271 19.2597 14.1005L19.513 14.2138C19.613 14.2671 19.733 14.3665 19.7997 14.4071C19.8664 14.4465 19.9397 14.4871 19.9997 14.5331C20.7404 13.9671 21.6397 13.6605 22.5664 13.667C22.987 13.667 23.407 13.7265 23.8064 13.8605C26.267 14.6605 27.1537 17.3605 26.413 19.7205C25.993 20.9265 25.3064 22.0271 24.407 22.9265C23.1197 24.1731 21.707 25.2798 20.1864 26.2331L20.0197 26.3338L19.8464 26.2265C18.3204 25.2798 16.8997 24.1731 15.6004 22.9198C14.707 22.0205 14.0197 20.9265 13.593 19.7205C12.8397 17.3605 13.7264 14.6605 16.2137 13.8465C16.407 13.7798 16.6064 13.7331 16.8064 13.7071H16.8864C17.0737 13.6798 17.2597 13.667 17.4464 13.667H17.5197ZM23.4597 15.7738C23.1864 15.6798 22.8864 15.8271 22.7864 16.1071C22.693 16.3871 22.8397 16.6938 23.1197 16.7931C23.547 16.9531 23.833 17.3738 23.833 17.8398V17.8605C23.8204 18.0131 23.8664 18.1605 23.9597 18.2738C24.053 18.3871 24.193 18.4531 24.3397 18.4671C24.613 18.4598 24.8464 18.2405 24.8664 17.9598V17.8805C24.8864 16.9465 24.3204 16.1005 23.4597 15.7738Z" fill="white"/>
</svg>
