<svg width="40" height="40" viewBox="0 0 40 40" fill="none" xmlns="http://www.w3.org/2000/svg">
<circle cx="20" cy="20" r="20" fill="#009966"/>
<path d="M26.5401 20.5435C26.5881 20.5705 26.5977 20.6277 26.5996 20.6495L26.6001 20.6582L26.5468 24.1013C26.5468 25.4747 25.4826 26.5947 24.1427 26.6633L24.0122 26.6666H15.9815C14.6246 26.6666 13.518 25.5896 13.4502 24.2334L13.4469 24.1013L13.4002 20.6582C13.4002 20.6582 13.4002 20.5772 13.4602 20.5435C13.5136 20.5097 13.5803 20.5502 13.587 20.557C14.9343 21.4616 16.5551 22.0625 18.256 22.3122C18.4961 22.346 18.7362 22.1907 18.8029 21.9477C18.9405 21.4287 19.3653 21.0759 19.885 21.0338L19.9902 21.0295H20.0102C20.5771 21.0295 21.0507 21.3941 21.1974 21.9477C21.2641 22.1907 21.5042 22.346 21.7444 22.3122C23.4452 22.0625 25.066 21.4616 26.4134 20.557C26.4134 20.557 26.4267 20.5502 26.44 20.5435C26.4667 20.53 26.5067 20.5232 26.5401 20.5435ZM19.9968 21.9949C19.7461 21.9949 19.5347 22.1878 19.5012 22.4332L19.4966 22.5013V23.3721C19.4966 23.6557 19.7234 23.8785 19.9968 23.8785C20.2536 23.8785 20.46 23.6913 20.4926 23.4417L20.4971 23.3721V22.5013C20.4971 22.2245 20.277 21.9949 19.9968 21.9949ZM20.8573 13.3333C21.8578 13.3333 22.6782 14.0962 22.8049 15.0751H24.1256C25.5263 15.0751 26.6668 16.2295 26.6668 17.6472C26.6668 17.6472 26.6268 18.2474 26.6135 19.0832C26.6121 19.1493 26.5801 19.2141 26.5274 19.2533C26.2066 19.4902 25.9131 19.686 25.8864 19.6995C24.7792 20.4421 23.4926 20.9647 22.1219 21.2246C22.0325 21.2421 21.9445 21.1956 21.8991 21.1159C21.5149 20.4502 20.7972 20.0168 19.9968 20.0168C19.2018 20.0168 18.4774 20.4455 18.0819 21.1118C18.0358 21.1902 17.9491 21.2354 17.8604 21.2185C16.5011 20.9579 15.2144 20.4361 14.1139 19.7063L13.4736 19.2607C13.4202 19.227 13.3869 19.1662 13.3869 19.0987C13.3668 18.7544 13.3335 17.6472 13.3335 17.6472C13.3335 16.2295 14.4741 15.0751 15.8748 15.0751H17.1888C17.3155 14.0962 18.1359 13.3333 19.1364 13.3333H20.8573ZM20.8573 14.346H19.1364C18.6895 14.346 18.3093 14.6565 18.2026 15.0751H21.7911C21.6843 14.6565 21.3041 14.346 20.8573 14.346Z" fill="white"/>
</svg>
