<svg width="40" height="40" viewBox="0 0 40 40" fill="none" xmlns="http://www.w3.org/2000/svg">
<circle cx="20" cy="20" r="20" fill="#744DA6"/>
<path d="M17.9709 15.3063C18.2976 15.2452 18.6252 15.4083 18.7678 15.7032C18.8033 15.7567 18.8317 15.8144 18.8523 15.8749C18.9429 17.2728 19.0395 18.647 19.13 20.0212C19.128 20.1641 19.1504 20.3063 19.1965 20.4418C19.3048 20.7085 19.5744 20.8777 19.8666 20.8623L24.304 20.578L24.3342 20.5899L24.4152 20.5957C24.5756 20.6162 24.7252 20.6895 24.8387 20.8047C24.9712 20.9391 25.0438 21.1196 25.0407 21.3066C24.8657 23.8547 22.9976 25.9837 20.4553 26.5321C17.9131 27.0806 15.3069 25.9169 14.0587 23.6759C13.6916 23.0305 13.4597 22.3196 13.3765 21.585C13.3442 21.3673 13.33 21.1474 13.3342 20.9275C13.3426 18.218 15.2717 15.8794 17.9709 15.3063ZM20.6092 13.3339C23.6564 13.4251 26.2031 15.6372 26.6646 18.5937C26.6676 18.6114 26.6676 18.6294 26.6646 18.647L26.6638 18.7305C26.6538 18.8408 26.6085 18.9461 26.5333 19.0305C26.4392 19.1361 26.3062 19.2006 26.1635 19.2098L21.0439 19.5474L20.9595 19.5491C20.8198 19.5422 20.6858 19.4879 20.5814 19.3939C20.4561 19.2812 20.3851 19.1218 20.3858 18.9551L20.0417 13.9262V13.8433C20.0479 13.7018 20.1113 13.5686 20.2178 13.4731C20.3242 13.3775 20.465 13.3274 20.6092 13.3339Z" fill="white"/>
</svg>
