<svg width="14" height="13" viewBox="0 0 14 13" fill="none" xmlns="http://www.w3.org/2000/svg">
<path d="M4.51969 0.00010311C4.93969 0.0128762 5.34635 0.0862096 5.74035 0.22021H5.77969C5.80635 0.232876 5.82635 0.246876 5.83969 0.259543C5.98702 0.306876 6.12635 0.36021 6.25969 0.433543L6.51302 0.546876C6.61302 0.60021 6.73302 0.699543 6.79969 0.740209C6.86635 0.779543 6.93969 0.820209 6.99969 0.866209C7.74035 0.30021 8.63969 -0.00645711 9.56635 0.00010311C9.98702 0.00010311 10.407 0.0595429 10.8064 0.193543C13.267 0.993543 14.1537 3.69354 13.413 6.05354C12.993 7.25954 12.3064 8.36021 11.407 9.25954C10.1197 10.5062 8.70702 11.6129 7.18635 12.5662L7.01969 12.6669L6.84635 12.5595C5.32035 11.6129 3.89969 10.5062 2.60035 9.25288C1.70702 8.35354 1.01969 7.25954 0.593019 6.05354C-0.160315 3.69354 0.726352 0.993543 3.21369 0.179543C3.40702 0.112876 3.60635 0.0662096 3.80635 0.0402096H3.88635C4.07369 0.0128762 4.25969 0.00010311 4.44635 0.00010311H4.51969ZM10.4597 2.10688C10.1864 2.01288 9.88635 2.16021 9.78635 2.44021C9.69302 2.72021 9.83969 3.02688 10.1197 3.12621C10.547 3.28621 10.833 3.70688 10.833 4.17288V4.19354C10.8204 4.34621 10.8664 4.49354 10.9597 4.60688C11.053 4.72021 11.193 4.78621 11.3397 4.80021C11.613 4.79288 11.8464 4.57354 11.8664 4.29288V4.21354C11.8864 3.27954 11.3204 2.43354 10.4597 2.10688Z" fill="white"/>
</svg>
