<svg width="40" height="40" viewBox="0 0 40 40" fill="none" xmlns="http://www.w3.org/2000/svg">
<circle cx="20" cy="20" r="20" fill="#E3B839"/>
<path d="M23.9456 21.5467C23.7729 21.7141 23.6936 21.9561 23.7329 22.1934L24.3256 25.4734C24.3756 25.7514 24.2583 26.0327 24.0256 26.1934C23.7976 26.3601 23.4943 26.3801 23.2456 26.2467L20.2929 24.7067C20.1903 24.6521 20.0763 24.6227 19.9596 24.6194H19.7789C19.7163 24.6287 19.6549 24.6487 19.5989 24.6794L16.6456 26.2267C16.4996 26.3001 16.3343 26.3261 16.1723 26.3001C15.7776 26.2254 15.5143 25.8494 15.5789 25.4527L16.1723 22.1727C16.2116 21.9334 16.1323 21.6901 15.9596 21.5201L13.5523 19.1867C13.3509 18.9914 13.2809 18.6981 13.3729 18.4334C13.4623 18.1694 13.6903 17.9767 13.9656 17.9334L17.2789 17.4527C17.5309 17.4267 17.7523 17.2734 17.8656 17.0467L19.3256 14.0534C19.3603 13.9867 19.4049 13.9254 19.4589 13.8734L19.5189 13.8267C19.5503 13.7921 19.5863 13.7634 19.6263 13.7401L19.6989 13.7134L19.8123 13.6667H20.0929C20.3436 13.6927 20.5643 13.8427 20.6796 14.0667L22.1589 17.0467C22.2656 17.2647 22.4729 17.4161 22.7123 17.4527L26.0256 17.9334C26.3056 17.9734 26.5396 18.1667 26.6323 18.4334C26.7196 18.7007 26.6443 18.9941 26.4389 19.1867L23.9456 21.5467Z" fill="white"/>
</svg>
