<svg width="273" height="80" viewBox="0 0 273 80" fill="none" xmlns="http://www.w3.org/2000/svg">
<g clip-path="url(#clip0)">
<path fill-rule="evenodd" clip-rule="evenodd" d="M127.769 29.3342C127.916 24.8052 124.21 20.6736 116.4 20.5216C110.877 20.442 106.776 22.3652 106.409 26.9603C106.107 30.7938 107.395 31.5555 109.885 32.5464C111.18 33.9344 121.638 35.6205 123.744 35.994C126.781 36.537 133.31 37.9119 136.784 41.5107C143.151 48.2557 140.2 61.5134 133.31 66.0353C128.597 69.0984 122.166 69.866 116.028 69.9406C113.225 70.0222 106.552 69.0208 102.461 66.0353C97.5398 62.4281 95.1115 56.9113 94.7446 51.6313H105.793C105.793 53.0824 106.254 55.3824 108.141 57.3797C110.636 59.9896 114.744 60.8267 118.528 60.6719C122.319 60.5959 125.873 59.4521 127.314 58.0589C129.737 55.77 130.27 51.3944 127.54 48.6446C123.897 44.8113 112.996 44.8113 105.878 42.3582C99.8821 40.2854 94.9686 35.9119 95.8751 26.8854C96.7838 17.9907 103.14 11.4031 116.636 11.4031C119.582 11.4031 129.888 11.6347 135.271 18.5344C138.151 22.2827 138.907 27.4934 138.457 29.3342H127.769Z" fill="#ADADAD"/>
<path fill-rule="evenodd" clip-rule="evenodd" d="M168.467 48.6445C165.435 50.4799 161.355 50.3331 158.618 50.8605C155.366 51.4795 153.078 54.2342 153.999 57.6117C154.607 60.0548 156.489 61.8205 161.041 61.0561C167.326 60.0548 168.467 55.6138 168.467 51.0129V48.6445ZM169.68 68.1835C168.924 67.1883 168.467 65.5022 168.543 64.0447C164.832 67.5664 161.573 69.9405 155.366 69.9405C147.023 69.9405 142.932 65.1967 143.236 57.1483C143.465 51.3216 145.735 45.6527 155.135 44.0386C159.068 43.8818 163.307 42.9734 165.817 42.1289C167.704 41.4336 168.62 39.4466 168.467 37.4485C168.467 34.8483 166.338 33.6948 161.491 33.6948C155.43 33.6948 154.67 37.4485 154.526 40.4449H144.523C144.682 27.1891 155.891 25.9609 161.491 25.9609C165.588 25.9609 169.147 26.6433 171.199 27.4934C175.29 29.1769 178.541 32.5464 178.541 39.1428V61.8205C178.47 63.659 179.535 65.5022 180.888 66.7193V68.1835H169.68Z" fill="#ADADAD"/>
<path fill-rule="evenodd" clip-rule="evenodd" d="M182.699 27.4934H188.468V22.6633C188.468 16.4643 191.576 12.322 198.465 12.322H205.064V20.2902H201.354C199.914 20.2902 199.074 21.2168 199.074 23.1216V27.4934H205.37V34.6168H199.074V68.1835H188.468V34.6168H182.699V27.4934Z" fill="#ADADAD"/>
<path fill-rule="evenodd" clip-rule="evenodd" d="M209.969 26.6433H220.584V34.6993H220.731C221.41 32.2457 221.942 30.7937 225.654 28.1783C227.475 26.7958 229.901 25.4185 233.233 25.961V36.9183C228.693 36.3857 221.866 35.7726 220.584 44.8113V68.1835H209.969V26.6433Z" fill="#ADADAD"/>
<path fill-rule="evenodd" clip-rule="evenodd" d="M260.276 48.6445C257.244 50.4799 253.153 50.3331 250.439 50.8605C247.18 51.4795 244.912 54.2342 245.81 57.6117C246.419 60.0548 248.321 61.8205 252.852 61.0561C259.144 60.0548 260.276 55.6138 260.276 51.0129V48.6445ZM261.501 68.1835C260.737 67.1883 260.276 65.5022 260.354 64.0447C256.64 67.5664 253.39 69.9405 247.18 69.9405C238.839 69.9405 234.739 65.1967 235.055 57.1483C235.281 51.3216 237.544 45.6527 246.951 44.0386C250.889 43.8818 255.134 42.9734 257.628 42.1289C259.538 41.4336 260.441 39.4466 260.276 37.4485C260.276 34.8483 258.161 33.6948 253.313 33.6948C247.246 33.6948 246.496 37.4485 246.338 40.4449H236.344C236.488 27.1891 247.696 25.9609 253.313 25.9609C257.405 25.9609 260.963 26.6433 263.013 27.4934C267.094 29.1769 270.357 32.5464 270.357 39.1428V61.8205C270.281 63.659 271.342 65.5022 272.71 66.7193V68.1835H261.501Z" fill="#ADADAD"/>
<path fill-rule="evenodd" clip-rule="evenodd" d="M39.4118 45.2139C39.2405 41.4036 37.8173 39.0946 36.4108 37.7036H36.4278C38.2936 37.7036 40.8899 39.3445 40.8899 41.9697C40.8899 43.419 40.3999 44.4752 39.4118 45.2139ZM33.1014 52.5118V48.8541C34.4492 48.824 35.6704 48.6992 36.7618 48.4838C36.235 50.9727 34.862 52.1529 33.1014 52.5118ZM28.0085 48.2493C28.6965 48.4906 29.5514 48.6857 30.6675 48.7864V52.4369C29.3232 51.9575 28.1623 50.5952 28.0085 48.2493ZM27.9901 37.7036H30.6675V46.5314C29.6686 46.3984 28.7806 46.1552 27.9901 45.8318V37.7036ZM23.7714 31.7967C23.7714 30.4733 24.3737 29.3276 25.5562 28.5007V34.971C24.423 34.3154 23.7714 33.1112 23.7714 31.7967ZM30.6675 21.5963V24.912C29.7702 24.9375 28.9053 25.0337 28.088 25.1971C28.3822 23.5474 29.3288 22.1781 30.6675 21.5963ZM35.8836 25.7179C35.136 25.4546 34.2283 25.187 33.1014 25.0339V21.4508C34.4053 21.8807 35.5076 23.227 35.8836 25.7179ZM33.1014 35.38V27.2569C34.1182 27.399 35.0971 27.6485 36.0177 27.9866C35.923 31.4981 34.1496 34.7544 33.1014 35.38ZM27.9901 27.4603C28.7754 27.2704 29.6681 27.1554 30.6675 27.1274V35.4885H27.9901V27.4603ZM36.9937 46.2392C35.9215 46.4861 34.6251 46.6125 33.1014 46.6396V37.7257C34.2142 37.983 36.9958 40.6895 36.9958 45.9897C36.9958 46.0737 36.9949 46.1569 36.9937 46.2392ZM36.0221 35.4885H35.8999C37.1188 33.9689 38.0888 31.5624 38.3717 29.1158C39.2275 29.635 39.9949 30.2352 40.6466 30.8941C40.9709 31.2224 41.1333 31.3864 41.3767 31.3864C41.8634 31.3864 42.1068 30.9763 41.8634 30.5659C41.2145 29.4994 40.9709 28.5969 40.9709 27.4485C40.9709 26.7099 41.2145 26.0537 41.3767 25.6434C41.5389 25.2333 41.3767 24.823 40.8899 24.823C40.4842 24.823 40.4032 25.1512 40.2408 25.3973C39.9294 25.9487 39.3179 26.423 38.4081 26.4603C38.0577 22.0268 35.816 19.8556 33.5038 19.2567C34.3339 17.2584 36.3903 16.0318 39.1049 15.4704C39.5107 15.3883 39.8352 15.2243 39.8352 14.896C39.8352 14.4859 39.5107 14.3217 39.1049 14.3217C38.2126 14.3217 36.9144 14.8139 35.8597 15.1421C34.2373 15.6344 32.858 15.9626 31.6409 15.9626C29.0448 15.9626 26.7731 14.8139 26.043 14.8139C25.7186 14.8139 25.475 15.06 25.475 15.3883C25.475 15.6344 25.6374 15.8805 26.1241 16.0447C28.2808 16.752 29.6836 17.8828 30.3027 19.4068C29.0213 19.8826 27.9587 20.8501 27.2321 22.1146C26.3688 20.3541 25.2754 19.5725 23.6902 19.5725C22.1488 19.5725 20.9317 20.7209 20.9317 22.1156C20.9317 23.1 21.5808 23.8386 22.311 23.8386C22.6355 23.8386 22.7977 23.6746 22.7977 23.4285C22.7977 23.1 22.6355 23.0181 22.6355 22.5259C22.6355 22.0337 23.0411 21.6234 23.6902 21.6234C24.6637 21.6234 25.5562 22.608 25.5562 25.3152V25.9895C23.004 27.1325 21.3375 29.1466 21.3375 31.8786C21.3375 34.6851 23.1677 36.7838 25.5562 37.4659V44.3874C23.7362 42.9061 22.7169 40.9914 22.0676 39.5906C21.9054 39.2624 21.743 38.852 21.3375 38.852C20.8507 38.852 20.6883 39.3445 20.9317 39.9188C21.1751 40.4929 21.3375 41.3954 21.3375 42.2158C21.3375 43.2005 21.0129 44.1028 20.3638 44.7592C20.0394 45.0872 19.7958 45.3333 19.7958 45.5796C19.7958 45.9076 20.0394 46.0718 20.2828 46.0718C20.7695 46.0718 21.3375 45.4975 22.3922 45.4975C23.0411 45.4975 23.8524 45.8257 25.1507 46.6461C25.2868 46.7272 25.4209 46.8139 25.5562 46.9045V47.8767V49.0253C25.5562 50.1739 25.0695 50.9123 24.096 50.9123C23.4468 50.9123 23.0411 50.42 23.0411 49.7636C23.0411 49.2714 23.3656 49.1074 23.3656 48.8613C23.3656 48.615 23.2035 48.451 22.8789 48.451C22.3922 48.451 21.5808 49.1893 21.5808 50.42C21.5808 51.5687 22.3922 52.9634 24.096 52.9634C25.0607 52.9634 25.967 52.667 26.8149 51.8234C27.601 53.1076 28.9801 54.2537 30.5398 54.6767C30.1126 56.8436 28.6339 58.6242 26.5299 58.6242C25.475 58.6242 24.9073 58.0499 24.9073 57.3114C24.9073 56.7371 25.3128 56.4091 25.6374 56.2449C26.043 56.0809 26.3675 55.9988 26.3675 55.5066C26.3675 55.2605 26.2051 54.9322 25.3938 54.9322C23.9336 54.9322 22.7167 56.2449 22.7167 57.8038C22.7167 59.5266 23.9336 61.1674 26.4487 61.1674C28.5922 61.1674 30.4586 60.1045 31.638 58.7642C33.0258 59.8981 35.1398 60.8392 36.1845 60.8392C36.5088 60.8392 36.8334 60.6752 36.8334 60.347C36.8334 60.0188 36.5088 59.7727 36.1845 59.6087C34.3182 58.6242 33.1014 57.2295 33.1014 54.7683V54.7276C35.9983 54.1815 38.7077 51.8066 39.3067 47.72C41.9432 46.5872 43.3239 44.635 43.3239 41.9697C43.3239 38.1137 39.7541 35.4885 36.0221 35.4885ZM49.8142 58.6242C46.9747 58.6242 45.1087 56.9834 45.1087 54.5221C45.1087 52.471 46.4879 50.8301 48.1105 50.8301C48.7595 50.8301 49.3274 51.0763 49.3274 51.7327C49.3274 52.143 49.1652 52.471 49.5708 52.471C49.8142 52.471 50.0577 52.2249 50.0577 51.5687C50.0577 50.7483 49.3274 50.0918 48.2727 50.0918H48.0294C48.1915 49.7636 48.1915 49.4354 48.1915 49.3535C48.1915 48.615 47.6238 48.2049 47.0559 48.2049C46.4879 48.2049 45.92 48.5331 45.92 48.9432C45.92 49.1074 46.0012 49.1893 46.1634 49.1893C46.4067 49.1893 46.4879 48.9432 46.8937 48.9432C47.218 48.9432 47.4614 49.1074 47.4614 49.5175C47.4614 50.0918 46.9747 50.3379 46.5689 50.584C45.2711 51.3226 44.3786 52.7992 44.3786 54.5221C44.3786 56.8192 45.6766 58.296 47.5426 58.9522L46.3255 60.8392C44.7031 60.8392 43.8918 62.0699 42.4314 64.6952C42.2692 64.0388 41.7822 63.5466 40.9709 63.5466C40.0786 63.5466 39.5107 64.203 39.5107 65.1053C39.5107 65.3516 39.6729 65.5156 39.8352 65.5156C40.0786 65.5156 40.2408 65.3516 40.2408 65.1053C40.2408 64.6952 40.4842 64.2849 40.9709 64.2849C41.5389 64.2849 41.7822 64.6952 41.7822 65.1874C41.7822 65.7617 41.7012 66.0899 41.2955 66.7461C39.5919 69.5356 37.2389 70.9303 35.2108 70.9303C33.4259 70.9303 32.3713 69.8638 32.3713 68.7973C32.3713 67.8129 32.9392 66.9925 33.9127 66.9925C34.5618 66.9925 34.9674 67.4026 34.9674 67.9769C34.9674 68.4691 34.5618 68.4691 34.5618 68.7152C34.5618 68.8794 34.724 68.9613 34.8862 68.9613C35.3731 68.9613 35.6975 68.387 35.6975 67.8129C35.6975 66.9103 34.9674 66.2539 33.9127 66.2539C32.9392 66.2539 32.1279 66.9104 31.8843 67.5666C31.6409 66.9104 30.8296 66.2539 29.8561 66.2539C28.8015 66.2539 28.0713 66.9103 28.0713 67.8129C28.0713 68.387 28.3957 68.9613 28.8826 68.9613C29.0448 68.9613 29.207 68.8794 29.207 68.7152C29.207 68.4691 28.8015 68.4691 28.8015 67.9769C28.8015 67.4026 29.207 66.9925 29.8561 66.9925C30.8296 66.9925 31.3976 67.8129 31.3976 68.7973C31.3976 69.8638 30.3429 70.9303 28.5581 70.9303C26.5299 70.9303 24.177 69.5356 22.4734 66.7461C22.0676 66.0899 21.9864 65.7617 21.9864 65.1874C21.9864 64.6952 22.2298 64.2849 22.7977 64.2849C23.2847 64.2849 23.528 64.6952 23.528 65.1053C23.528 65.3516 23.6902 65.5156 23.9336 65.5156C24.096 65.5156 24.2582 65.3516 24.2582 65.1053C24.2582 64.203 23.6902 63.5466 22.7977 63.5466C21.9864 63.5466 21.4997 64.0388 21.3375 64.6952C19.877 62.0699 19.0657 60.8392 17.4431 60.8392L16.2262 58.9522C18.0922 58.296 19.3903 56.8192 19.3903 54.5221C19.3903 52.7992 18.4978 51.3226 17.1997 50.584C16.7942 50.3379 16.3072 50.0918 16.3072 49.5175C16.3072 49.1074 16.5506 48.9432 16.8754 48.9432C17.2809 48.9432 17.3619 49.1893 17.6055 49.1893C17.7677 49.1893 17.8489 49.1074 17.8489 48.9432C17.8489 48.5331 17.2809 48.2049 16.713 48.2049C16.145 48.2049 15.5771 48.615 15.5771 49.3535C15.5771 49.4354 15.5771 49.7636 15.7393 50.0918H15.4961C14.4414 50.0918 13.7111 50.7483 13.7111 51.5687C13.7111 52.2249 13.9545 52.471 14.1978 52.471C14.6036 52.471 14.4414 52.143 14.4414 51.7327C14.4414 51.0763 15.0092 50.8301 15.6583 50.8301C17.2809 50.8301 18.6602 52.471 18.6602 54.5221C18.6602 56.9834 16.7942 58.6242 13.9545 58.6242C10.6282 58.6242 8.11311 56.163 8.11311 52.7171C8.11311 49.3535 10.0603 47.0563 12.2509 45.0053L14.1169 43.2005C16.4696 40.9853 17.4431 38.688 17.4431 35.8167C17.4431 32.699 15.5771 29.2533 11.6829 27.5304C12.4942 27.2843 12.981 26.4638 12.981 25.4794C12.981 24.823 12.7376 24.4129 12.7376 23.9205C12.7376 22.936 13.3055 22.3617 14.1169 22.3617C14.847 22.3617 15.3337 22.936 15.3337 23.5104C15.3337 24.0026 15.0092 24.4129 14.4414 24.4129C14.1978 24.4129 14.0357 24.4129 14.0357 24.659C14.0357 24.9051 14.279 24.9872 14.6036 24.9872C15.5771 24.9872 16.0641 24.1668 16.0641 23.7565C16.2262 23.8386 16.3884 23.9205 16.6318 23.9205C17.1997 23.9205 17.6055 23.5104 17.6055 22.936C17.6055 22.772 17.5243 22.5259 17.2809 22.5259C17.1185 22.5259 17.0375 22.6899 17.0375 22.8541C17.0375 23.1 16.8754 23.2643 16.6318 23.2643C16.3072 23.2643 16.0641 23.0181 15.9017 22.6899C15.5771 22.1156 14.928 21.6234 14.1169 21.6234C13.0622 21.6234 12.2509 22.3617 12.0885 23.3464C11.6017 22.8541 11.0338 22.3617 10.2225 21.8695C10.8716 21.4594 11.4396 21.1312 12.0885 20.639C13.0622 19.9005 13.9545 19.08 14.928 18.0135L19.3903 13.0912C23.2847 8.74299 25.7996 7.67625 28.2335 7.67625C30.3429 7.67625 31.3976 8.74299 31.3976 9.97352C31.3976 10.8756 31.0145 11.5451 30.4064 11.8758C30.061 11.5219 29.8072 11.0386 29.694 10.4657C29.6128 10.0556 29.5316 10.0556 29.4504 10.0556C29.2882 10.0556 29.2882 10.2196 29.2882 10.3838C29.2882 11.0855 29.4537 11.6512 29.7248 12.0895C29.6357 12.1005 29.5443 12.1066 29.4504 12.1066C28.6391 12.1066 28.1523 11.6965 28.1523 11.2043C28.1523 11.1221 28.1523 10.9579 28.3147 10.7939C28.4769 10.6299 28.3957 10.5478 28.3147 10.5478C27.9901 10.5478 27.6656 10.9579 27.6656 11.4504C27.6656 12.0247 28.1523 12.8451 29.5316 12.8451C29.7358 12.8451 30.0071 12.8188 30.2985 12.7301C30.7561 13.0845 31.3201 13.2552 31.8843 13.2552C32.4485 13.2552 33.0127 13.0845 33.4701 12.7301C33.7616 12.8188 34.0328 12.8451 34.2373 12.8451C35.6165 12.8451 36.1031 12.0247 36.1031 11.4504C36.1031 10.9579 35.7787 10.5478 35.4541 10.5478C35.3731 10.5478 35.2917 10.6299 35.4541 10.7939C35.6165 10.9579 35.6165 11.1221 35.6165 11.2043C35.6165 11.6965 35.1296 12.1066 34.3182 12.1066C34.2244 12.1066 34.1332 12.1005 34.0441 12.0895C34.3151 11.6512 34.4804 11.0855 34.4804 10.3838C34.4804 10.2196 34.4804 10.0556 34.3182 10.0556C34.2373 10.0556 34.1561 10.0556 34.0749 10.4657C33.9616 11.0386 33.7078 11.5219 33.3625 11.8758C32.7541 11.5451 32.3713 10.8756 32.3713 9.97352C32.3713 8.74299 33.426 7.67625 35.5353 7.67625C37.9693 7.67625 40.4842 8.74299 44.3786 13.0912L48.8407 18.0135C49.7332 19.08 50.7067 19.9005 51.6804 20.639C52.3293 21.1312 52.8972 21.4594 53.5464 21.8695C52.735 22.3617 52.1671 22.8541 51.6804 23.3464C51.518 22.3617 50.7067 21.6234 49.652 21.6234C48.8407 21.6234 48.1915 22.1156 47.8672 22.6899C47.7048 23.0181 47.4614 23.2643 47.1368 23.2643C46.8937 23.2643 46.7313 23.1 46.7313 22.8541C46.7313 22.6899 46.6501 22.5259 46.4879 22.5259C46.2445 22.5259 46.1634 22.772 46.1634 22.936C46.1634 23.5104 46.5689 23.9205 47.1368 23.9205C47.3802 23.9205 47.5426 23.8386 47.7048 23.7565C47.7048 24.1668 48.1915 24.9872 49.1652 24.9872C49.4898 24.9872 49.7332 24.9051 49.7332 24.659C49.7332 24.4129 49.5708 24.4129 49.3274 24.4129C48.7595 24.4129 48.4351 24.0847 48.4351 23.5104C48.4351 22.936 48.9219 22.3617 49.652 22.3617C50.4633 22.3617 51.0312 22.936 51.0312 23.9205C51.0312 24.4129 50.7879 24.823 50.7879 25.4794C50.7879 26.4638 51.2746 27.2843 52.0859 27.5304C48.1915 29.2533 46.3255 32.699 46.3255 35.8167C46.3255 38.688 47.2992 40.9853 49.652 43.2005L51.518 45.0053C53.7085 47.0563 55.6557 49.3535 55.6557 52.7171C55.6557 56.163 53.1406 58.6242 49.8142 58.6242ZM31.8843 73.8838C31.2354 72.5712 30.5053 71.7508 30.1807 71.3407C30.992 71.0125 31.56 70.4381 31.8843 69.7817C32.2089 70.4381 32.7768 71.0125 33.5881 71.3407C33.2636 71.7508 32.5334 72.5712 31.8843 73.8838ZM32.7048 12.34C32.4502 12.4548 32.1733 12.5167 31.8843 12.5167C31.5953 12.5167 31.3187 12.4548 31.0641 12.34C31.3809 12.0975 31.674 11.7428 31.8843 11.2312C32.0948 11.7428 32.3879 12.0975 32.7048 12.34ZM56.9538 49.1893C56.467 49.1893 56.0613 49.4354 55.8991 49.7636C55.25 48.287 54.6008 46.8923 51.7613 44.2668C51.9237 44.3489 52.4917 44.431 52.8972 44.431C53.7897 44.431 54.7632 44.1849 55.3312 43.6106C55.4933 44.1849 55.9801 44.5129 56.5482 44.5129C57.4405 44.5129 57.7651 43.9388 57.7651 43.2824C57.7651 43.0363 57.6839 42.7901 57.4405 42.7901C56.9538 42.7901 57.3593 43.7746 56.5482 43.7746C56.2234 43.7746 55.9801 43.5285 55.9801 43.1184C55.9801 42.708 56.2235 42.2158 56.2235 41.6415C56.2235 40.3289 55.4121 39.4264 54.4386 39.1803C53.8707 39.0163 53.5464 38.6059 53.5464 38.1137C53.5464 37.4575 54.0331 37.3754 54.3577 37.3754C54.682 37.3754 54.9256 37.4575 54.9256 37.2112C54.9256 36.9651 54.682 36.8011 54.1953 36.8011C53.6273 36.8011 52.816 37.2112 52.816 38.1137C52.816 38.4419 52.8972 38.7701 53.2218 39.0984C52.4917 39.2624 51.8425 39.8367 51.8425 40.7392C51.8425 41.3133 52.0047 41.8876 52.4105 41.8876C52.8972 41.8876 52.4917 41.4775 52.4917 40.8211C52.4917 40.0828 53.1406 39.7546 53.7897 39.7546C54.682 39.7546 55.4933 40.575 55.4933 41.6415C55.4933 42.872 54.5198 43.6925 52.9784 43.6925C52.0859 43.6925 50.7879 43.5285 49.7332 42.2979C48.0294 40.411 47.0559 38.7701 47.0559 35.8167C47.0559 32.0428 49.7332 28.7611 53.6273 27.6946C54.4386 27.4485 55.0878 26.7099 55.0878 25.7255C55.0878 24.9051 54.6008 24.2489 53.7897 24.2489C53.4652 24.2489 53.2218 24.3308 53.2218 24.5769C53.2218 24.823 53.4652 24.823 53.6273 24.823C53.9519 24.823 54.3577 25.1512 54.3577 25.7255C54.3577 26.5459 53.7085 27.0381 52.9784 27.0381C52.0859 27.0381 51.518 26.3817 51.518 25.4794C51.518 23.7565 53.5464 22.608 55.0878 21.8695C53.7085 21.2133 53.2218 20.9672 52.1671 20.1468C51.9237 19.9005 51.8425 19.6544 51.8425 19.3264C51.8425 18.916 52.0859 18.5878 52.4105 18.5878C52.6538 18.5878 52.816 18.752 52.816 18.9981C52.816 19.2443 52.6538 19.2443 52.6538 19.4083C52.6538 19.5725 52.735 19.6544 52.8972 19.6544C53.0594 19.6544 53.4652 19.4904 53.4652 18.8339C53.4652 18.3417 53.1406 17.8495 52.4105 17.8495C51.6804 17.8495 51.1124 18.4238 51.1124 19.2443C50.5445 18.752 49.8953 18.1777 49.3274 17.5213L46.7313 14.6499C46.0012 13.8295 46.4067 12.2708 47.4614 12.2708C48.0294 12.2708 48.2727 12.6809 48.2727 13.0091C48.2727 13.7474 47.5426 13.4192 47.5426 13.8295C47.5426 13.9935 47.6238 14.1575 47.8672 14.1575C48.4351 14.1575 49.0028 13.7474 49.0028 12.927C49.0028 12.1887 48.3539 11.5323 47.4614 11.5323C46.4067 11.5323 45.6766 12.3527 45.6766 13.5013L44.8653 12.5988C41.2955 8.66089 38.3748 6.93794 35.5353 6.93794C34.4804 6.93794 33.5069 7.26615 32.9392 7.67625C32.4523 7.10215 32.2089 6.69183 31.8843 6.19962C31.56 6.69183 31.3166 7.10215 30.8296 7.67625C30.2617 7.26615 29.2882 6.93794 28.2335 6.93794C25.3938 6.93794 22.4734 8.66089 18.9035 12.5988L18.0922 13.5013C18.0922 12.3527 17.3619 11.5323 16.3072 11.5323C15.4149 11.5323 14.7658 12.1887 14.7658 12.927C14.7658 13.7474 15.3337 14.1575 15.9017 14.1575C16.145 14.1575 16.2262 13.9935 16.2262 13.8295C16.2262 13.4192 15.4961 13.7474 15.4961 13.0091C15.4961 12.6809 15.7393 12.2708 16.3072 12.2708C17.3619 12.2708 17.7677 13.8295 17.0375 14.6499L14.4414 17.5213C13.8735 18.1777 13.2244 18.752 12.6564 19.2443C12.6564 18.4238 12.0885 17.8495 11.3584 17.8495C10.6282 17.8495 10.3037 18.3417 10.3037 18.8339C10.3037 19.4904 10.7092 19.6544 10.8716 19.6544C11.0338 19.6544 11.115 19.5725 11.115 19.4083C11.115 19.2443 10.9526 19.2443 10.9526 18.9981C10.9526 18.752 11.115 18.5878 11.3584 18.5878C11.6829 18.5878 11.9263 18.916 11.9263 19.3264C11.9263 19.6544 11.8451 19.9005 11.6017 20.1468C10.6282 21.1312 10.0603 21.2133 8.68105 21.8695C10.2225 22.608 12.2509 23.7565 12.2509 25.4794C12.2509 26.3817 11.6829 27.0381 10.7904 27.0381C10.0603 27.0381 9.41117 26.5459 9.41117 25.7255C9.41117 25.1512 9.81693 24.823 10.1413 24.823C10.3037 24.823 10.547 24.823 10.547 24.5769C10.547 24.3308 10.3037 24.2489 9.97911 24.2489C9.1678 24.2489 8.68105 24.9051 8.68105 25.7255C8.68105 26.7099 9.32998 27.4485 10.1413 27.6946C14.0357 28.843 16.713 32.0428 16.713 35.8167C16.713 38.7701 15.6583 40.3289 14.0357 42.2979C12.981 43.5285 11.6829 43.6925 10.7904 43.6925C9.24899 43.6925 8.27529 42.872 8.27529 41.6415C8.27529 40.575 9.08661 39.7546 9.97911 39.7546C10.6282 39.7546 11.2772 40.0828 11.2772 40.8211C11.2772 41.4775 10.8716 41.8876 11.3584 41.8876C11.7639 41.8876 11.9263 41.3133 11.9263 40.7392C11.9263 39.8367 11.2772 39.2624 10.547 39.0984C10.8716 38.7701 10.9526 38.4419 10.9526 38.1137C10.9526 37.2112 10.1413 36.8011 9.57356 36.8011C9.08661 36.8011 8.84323 36.9651 8.84323 37.2112C8.84323 37.4575 9.08661 37.3754 9.41117 37.3754C9.73574 37.3754 10.2225 37.4575 10.2225 38.1137C10.2225 38.6059 9.89792 39.0163 9.32998 39.1803C8.35649 39.4264 7.54518 40.3289 7.54518 41.6415C7.54518 42.2158 7.78876 42.708 7.78876 43.1184C7.78876 43.5285 7.54518 43.7746 7.22061 43.7746C6.40951 43.7746 6.81506 42.7901 6.32831 42.7901C6.08473 42.7901 6.00375 43.0363 6.00375 43.2824C6.00375 43.9388 6.32831 44.5129 7.22061 44.5129C7.78876 44.5129 8.27529 44.1849 8.43768 43.6106C9.00562 44.1849 9.97911 44.431 10.8716 44.431C11.2772 44.431 11.8451 44.3489 12.0075 44.2668C9.1678 46.8923 8.51867 48.287 7.86974 49.7636C7.70735 49.4354 7.3018 49.1893 6.81506 49.1893C6.00375 49.1893 5.5982 49.6817 5.5982 50.42C5.5982 50.584 5.5982 51.0762 6.00375 51.0762C6.32831 51.0762 6.16613 50.7482 6.16613 50.5021C6.16613 50.1739 6.40951 49.9278 6.81506 49.9278C7.46398 49.9278 7.62637 50.5021 7.46398 51.4045C7.383 51.8148 7.383 52.307 7.383 52.7171C7.383 56.5731 10.2225 59.3626 13.9545 59.3626C14.5224 59.3626 15.0092 59.2805 15.5771 59.1984L16.713 60.9213C15.9017 61.1674 15.3337 61.9057 15.3337 62.7261C15.3337 63.7929 16.145 64.6131 17.1997 64.6131C17.8489 64.6131 18.3356 64.2849 18.3356 63.9569C18.3356 63.7108 18.1732 63.6287 18.011 63.6287C17.7677 63.6287 17.7677 63.8748 17.1997 63.8748C16.5506 63.8748 16.0641 63.3826 16.0641 62.7261C16.0641 62.0699 16.6318 61.5777 17.4431 61.5777C18.9845 61.5777 19.7148 63.3826 20.7695 65.1874L21.8242 66.9925C23.528 69.9459 26.2863 71.6687 28.5581 71.6687C28.8826 71.6687 29.207 71.6687 29.5316 71.5868C30.5053 72.5712 31.4788 74.3762 31.8843 75.1965C32.2901 74.3762 33.2636 72.5712 34.2373 71.5868C34.5618 71.6687 34.8862 71.6687 35.2108 71.6687C37.4823 71.6687 40.2408 69.9459 41.9446 66.9925L42.9993 65.1874C44.054 63.3826 44.7841 61.5777 46.3255 61.5777C47.1368 61.5777 47.7048 62.0699 47.7048 62.7261C47.7048 63.3826 47.218 63.8748 46.5689 63.8748C46.0012 63.8748 46.0012 63.6287 45.7576 63.6287C45.5954 63.6287 45.4332 63.7108 45.4332 63.9569C45.4332 64.2849 45.92 64.6131 46.5689 64.6131C47.6238 64.6131 48.4351 63.7929 48.4351 62.7261C48.4351 61.9057 47.8672 61.1674 47.0559 60.9213L48.1915 59.1984C48.7595 59.2805 49.2464 59.3626 49.8142 59.3626C53.5464 59.3626 56.3858 56.5731 56.3858 52.7171C56.3858 52.307 56.3858 51.8148 56.3046 51.4045C56.1425 50.5021 56.3046 49.9278 56.9538 49.9278C57.3593 49.9278 57.6027 50.1739 57.6027 50.5021C57.6027 50.7482 57.4405 51.0762 57.7651 51.0762C58.1706 51.0762 58.1706 50.584 58.1706 50.42C58.1706 49.6817 57.7651 49.1893 56.9538 49.1893ZM54.8444 63.3005C51.2746 66.9925 46.0012 69.6177 40.9709 72.079C37.6447 73.7198 34.3994 75.3607 31.8843 77.3295C29.3694 75.3607 26.1241 73.7198 22.7977 72.079C17.7677 69.6177 12.4942 66.9925 8.92443 63.3005C4.38112 58.6242 2.19056 53.8657 2.19056 48.451C2.19056 43.8567 3.97557 40.0007 8.03192 34.8323C8.35649 34.4219 8.68105 34.0118 8.68105 33.6834C8.68105 33.3554 8.35649 32.699 8.19431 32.371L5.35482 26.1356C4.70569 24.7409 4.05656 23.4285 4.05656 22.0337C4.05656 20.8851 4.78688 20.0647 5.76037 19.2443L9.81693 15.5523C9.97911 15.3883 9.97911 15.1421 9.89792 14.9779L8.59986 12.2708C8.43768 11.9426 8.43768 11.6965 8.68105 11.5323C12.6564 8.82489 15.9829 8.00447 20.7695 6.69183C25.3128 5.46131 29.3694 4.39457 31.8843 2.75394C34.3994 4.39457 38.456 5.46131 42.9993 6.69183C47.786 8.00447 51.0312 8.9891 55.0878 11.5323C55.3312 11.6965 55.3312 11.9426 55.169 12.2708L53.8707 14.9779C53.7897 15.1421 53.7897 15.3883 53.9519 15.5523L58.0085 19.2443C58.982 20.0647 59.7123 20.8851 59.7123 22.0337C59.7123 23.4285 59.0631 24.7409 58.414 26.1356L55.5745 32.371C55.4121 32.699 55.0878 33.3554 55.0878 33.6834C55.0878 34.0118 55.4121 34.4219 55.7369 34.8323C60.1178 39.7546 61.5783 43.8567 61.5783 48.451C61.5783 53.8657 59.3877 58.6242 54.8444 63.3005ZM58.6574 35.0781C57.9273 34.1758 57.5217 33.7655 57.5217 33.4375C57.5217 33.1091 57.7651 32.6171 58.0085 32.0428L60.4424 26.628C61.1725 24.9872 61.8216 23.5925 61.8216 21.8695C61.8216 20.639 61.3349 19.4083 60.1178 18.3417L56.6292 15.3061C56.3046 15.06 56.3046 14.6499 56.467 14.3217L57.7651 11.3683C57.8461 11.2043 57.8461 10.9579 57.6027 10.7939C53.6273 8.08657 49.084 6.44573 44.7841 5.21499C40.4842 4.06657 34.724 2.42573 31.8843 0.210571C29.0448 2.42573 23.2847 3.98447 18.9845 5.21499C14.6848 6.44573 10.1413 8.08657 6.16613 10.7939C5.92255 10.9579 5.92255 11.2043 6.00375 11.3683L7.3018 14.3217C7.46398 14.6499 7.46398 15.06 7.13962 15.3061L3.65101 18.3417C2.43393 19.4083 1.94719 20.639 1.94719 21.8695C1.94719 23.5925 2.59632 24.9872 3.32644 26.628L5.76037 32.0428C6.00375 32.6171 6.24712 33.1091 6.24712 33.4375C6.24712 33.7655 5.84136 34.1758 5.11124 35.0781C1.46044 39.6725 0 43.4464 0 48.451C0 55.4245 3.40763 60.7573 7.3018 64.7773C11.2772 68.8794 16.7942 71.5868 21.8242 74.0478C25.1507 75.6887 28.6391 77.3295 31.8843 79.955C35.1296 77.3295 38.6182 75.6887 41.9446 74.0478C46.9747 71.5868 52.5727 68.8794 56.467 64.7773C60.3612 60.7573 63.7686 55.4245 63.7686 48.451C63.7686 43.4464 62.3084 39.6725 58.6574 35.0781Z" fill="#ADADAD"/>
</g>
<defs>
<clipPath id="clip0">
<rect width="272.727" height="80" fill="white"/>
</clipPath>
</defs>
</svg>
